<svg xmlns="http://www.w3.org/2000/svg" width="16.004" height="16" viewBox="0 0 16.004 16">
  <path id="Icon_awesome-edit" data-name="Icon awesome-edit" d="M14.825,3.2l3.47,3.47a.376.376,0,0,1,0,.531l-8.4,8.4-3.57.4a.748.748,0,0,1-.827-.827l.4-3.57,8.4-8.4A.376.376,0,0,1,14.825,3.2Zm6.232-.881L19.18.446a1.5,1.5,0,0,0-2.123,0L15.695,1.807a.376.376,0,0,0,0,.531l3.47,3.47a.376.376,0,0,0,.531,0l1.362-1.362a1.5,1.5,0,0,0,0-2.123Z" transform="translate(-5.492 -0.007)" fill="#434246" opacity="0.5"/>
</svg>
