<svg xmlns="http://www.w3.org/2000/svg" width="13.1" height="13.089" viewBox="0 0 13.1 13.089">
  <g id="rocket-sharp" transform="translate(-12.161 -12.231)">
    <path id="Path_17826" data-name="Path 17826" d="M25.193,12.409a.139.139,0,0,0-.1-.107c-1.713-.419-5.67,1.073-7.814,3.217a9.269,9.269,0,0,0-1.042,1.231,3.893,3.893,0,0,0-1.886.236A4.3,4.3,0,0,0,12.165,20.3a.282.282,0,0,0,.309.328l2.553-.282a5.676,5.676,0,0,0,.035.576.571.571,0,0,0,.167.351l.989.986a.573.573,0,0,0,.351.167,5.66,5.66,0,0,0,.573.035l-.28,2.55a.282.282,0,0,0,.328.309A4.283,4.283,0,0,0,20.5,23.137a3.893,3.893,0,0,0,.239-1.879,9.289,9.289,0,0,0,1.234-1.042C24.121,18.075,25.605,14.206,25.193,12.409Zm-5.368,5.254a1.4,1.4,0,1,1,.992.411A1.4,1.4,0,0,1,19.825,17.663Z" fill="#694fa5"/>
    <path id="Path_17827" data-name="Path 17827" d="M21.761,129.535a1.333,1.333,0,0,1-.727.277,1.024,1.024,0,0,1-1.184-1.185,1.978,1.978,0,0,1,.276-.728.128.128,0,0,0-.107-.218,1.754,1.754,0,0,0-1.027.5c-.687.688-.752,3.241-.752,3.241s2.555-.065,3.242-.753a1.745,1.745,0,0,0,.5-1.028A.131.131,0,0,0,21.761,129.535Z" transform="translate(-5.611 -106.565)" fill="#694fa5"/>
  </g>
</svg>
