<svg xmlns="http://www.w3.org/2000/svg" width="14.331" height="14.331" viewBox="0 0 14.331 14.331">
  <path id="Ellipse_86" data-name="Ellipse 86" d="M7.165,0h.113A7.137,7.137,0,0,1,9.856.522l.006,0,.01,0,.083.034a7.191,7.191,0,0,1,3.813,3.813l.034.083,0,.01,0,.006a7.137,7.137,0,0,1,.521,2.577q0,.046,0,.093,0,.01,0,.02,0,.057,0,.113a7.137,7.137,0,0,1-.521,2.577l0,.006,0,.01-.034.083a7.191,7.191,0,0,1-3.813,3.813l-.083.034-.01,0-.006,0a7.137,7.137,0,0,1-2.577.521c-.075,0-.151,0-.226,0a7.137,7.137,0,0,1-2.577-.521l-.006,0-.01,0-.083-.034A7.191,7.191,0,0,1,.563,9.954L.529,9.872l0-.01,0-.006A7.137,7.137,0,0,1,0,7.278q0-.056,0-.113H0v0H0s0,0,0,0H0s0,0,0,0H0v0H0v0H0v0H0v0H0v0H0v0H0v0H0v0H0v0H0v0H0v0H0v0H0v0H0v0H0v0H0v0H0v0H0v0H0v0H0v0H0v0H0V7.087H0v0H0v0H0v0H0v0H0v0H0v0H0v0H0v0H0v0H0v0H0v0H0v0H0v0H0v0H0v0H0v0H0v0H0v0H0v0H0v0H0v0H0v0H0V7H0V7H0V7H0v0H0v0H0v0H0v0H0v0H0v0H0v0H0v0H0v0H0v0H0v0H0v0H0v0H0v0H0v0H0V6.934H0v0H0v0H0v0H0v0H0v0H0v0H0v0H0v0H0v0H0v0H0v0H0v0H0v0h0v0h0v0h0v0h0v0h0v0h0v0h0v0h0v0h0V6.86h0v0h0v0h0v0h0v0h0v0h0v0h0v0h0v0h0v0h0v0h0v0h0v0h0v0h0v0h0v0h0v0h0v0h0v0h0v0h0v0h0v0h0v0h0V6.78h0v0h0v0h0v0h0v0h0v0h0v0h0v0h0v0h0v0h0v0h0v0h0v0h0v0h0v0h0v0h0v0h0v0h0v0h0v0h0v0h0V6.706h0v0h0v0h0v0h0v0h0v0h0v0h0v0h0v0h0v0h0v0h0v0h0v0h0v0h0v0h0v0h0v0h0v0h0v0h0v0h0v0h0V6.631h0v0h0v0h0v0h0v0h0v0h0v0h0v0h0v0h0v0h0v0h0v0h0v0h0v0h0v0h0v0h0v0h0v0h0v0h0v0h0l0-.022h0v0h0v0h0v0h0v0h0v0h0v0h0v0h0v0h0v0h0v0h0v0h0v0h0v0h0v0h0v0h0v0h0v0h0l0-.028h0v0h0v0h0v0h0v0h0v0h0v0h0v0h0v0h0v0h0v0h0v0h0v0h0v0h0v0h0v0h0v0h0l0-.039h0v0h0v0h0v0h0v0h0v0h0v0h0v0h0v0h0q0-.037.008-.073h0A7.118,7.118,0,0,1,.489,4.558h0v0h0v0h0v0h0v0h0l0,0h0l0-.005h0L.511,4.5h0v0h0v0h0v0h0v0h0v0h0v0h0v0h0v0h0v0h0v0h0v0h0v0h0l.014-.035h0v0h0v0h0v0h0v0h0v0h0v0h0v0h0v0h0v0h0v0h0v0h0v0h0v0h0v0h0l0,0h0l0-.009H.565v0h0v0h0v0h0v0h0v0h0v0h0v0h0v0h0v0h0v0h0v0h0v0h0v0h0l0-.007h0v0h0v0H.607a.459.459,0,0,1,.84.371A6.248,6.248,0,1,0,12.922,9.6,6.245,6.245,0,0,0,7.165.919a.459.459,0,0,1,0-.919Z" transform="translate(0 14.331) rotate(-90)" fill="#7a5ac2"/>
</svg>
