<svg xmlns="http://www.w3.org/2000/svg" width="39.346" height="39.346" viewBox="0 0 39.346 39.346">
  <g id="send_solid" transform="translate(-12 -13.152)">
    <path id="Path_1995" data-name="Path 1995" d="M15.045,23.095a2.264,2.264,0,0,0-.208,4.283L27.1,32.214A4.528,4.528,0,0,0,31.966,31.2l5.073-5.074a1.7,1.7,0,0,1,2.4,2.4L34.368,33.6a4.528,4.528,0,0,0-1.011,4.862l4.836,12.267a2.264,2.264,0,0,0,4.283-.208l9.853-34.485a2.264,2.264,0,0,0-2.8-2.8Z" transform="translate(-1.072 0)" fill="#7b5bc4"/>
    <path id="Path_1996" data-name="Path 1996" d="M26.218,118.1a1.7,1.7,0,0,1,0,2.4L14.9,131.818a1.7,1.7,0,1,1-2.4-2.4L23.817,118.1A1.7,1.7,0,0,1,26.218,118.1Z" transform="translate(0 -79.817)" fill="#7b5bc4" fill-rule="evenodd"/>
    <path id="Path_1997" data-name="Path 1997" d="M19.426,98.9a1.7,1.7,0,0,1,0,2.4L14.9,105.826a1.7,1.7,0,0,1-2.4-2.4L17.025,98.9A1.7,1.7,0,0,1,19.426,98.9Z" transform="translate(0 -65.145)" fill="#7b5bc4" fill-rule="evenodd"/>
    <path id="Path_1998" data-name="Path 1998" d="M67.426,146.9a1.7,1.7,0,0,1,0,2.4L62.9,153.826a1.7,1.7,0,1,1-2.4-2.4l4.528-4.528A1.7,1.7,0,0,1,67.426,146.9Z" transform="translate(-36.681 -101.826)" fill="#7b5bc4" fill-rule="evenodd"/>
  </g>
</svg>
