<svg xmlns="http://www.w3.org/2000/svg" width="19.01" height="19.01" viewBox="0 0 19.01 19.01">
  <g id="Group_3117" data-name="Group 3117" transform="translate(0.001)">
    <g id="bxs-message" transform="translate(-0.001 0)">
      <path id="Path_18026" data-name="Path 18026" d="M17.829,15.3H31.783a2.531,2.531,0,0,1,2.527,2.519V28.3a2.528,2.528,0,0,1-2.529,2.522H26.209l-5.347,3.367a.785.785,0,0,1-1.2-.664v-2.7H17.829A2.528,2.528,0,0,1,15.3,28.3V17.822A2.528,2.528,0,0,1,17.829,15.3ZM31.781,29.252a.957.957,0,0,0,.959-.953V17.822a.959.959,0,0,0-.958-.952v0H17.829a.957.957,0,0,0-.959.952V28.3a.957.957,0,0,0,.959.953h2.616a.785.785,0,0,1,.785.785V32.1l4.336-2.731a.785.785,0,0,1,.418-.121Z" transform="translate(-15.3 -15.3)" fill="#9a97a0"/>
    </g>
    <g id="star" transform="translate(5.034 3.654)">
      <path id="Path_18027" data-name="Path 18027" d="M3.768-.7a1.023,1.023,0,0,1,.924.626L5.5,1.563l1.815.264.012,0a.989.989,0,0,1,.908.978,1.072,1.072,0,0,1-.345.767l-.007.007L6.572,4.861l.311,1.807,0,.022a1.392,1.392,0,0,1,.012.2,1.044,1.044,0,0,1-.2.617.939.939,0,0,1-.77.389,1.128,1.128,0,0,1-.552-.148L3.768,6.9,2.15,7.749a1.146,1.146,0,0,1-.547.146.944.944,0,0,1-.775-.389,1.044,1.044,0,0,1-.2-.617,1.392,1.392,0,0,1,.017-.2l0-.022L.963,4.861-.352,3.582-.38,3.553A1.085,1.085,0,0,1-.7,2.807a.989.989,0,0,1,.908-.978l.012,0,1.815-.264.81-1.638A1.023,1.023,0,0,1,3.768-.7ZM6,3.222,4.868,3.057a.785.785,0,0,1-.59-.429L3.768,1.6l-.51,1.031a.785.785,0,0,1-.59.429l-1.139.166.825.8a.785.785,0,0,1,.226.7L2.385,5.853,3.4,5.318a.785.785,0,0,1,.73,0l1.018.535L4.956,4.72a.785.785,0,0,1,.225-.695Z" transform="translate(0.7 0.7)" fill="#9a97a0"/>
    </g>
  </g>
</svg>
