<svg xmlns="http://www.w3.org/2000/svg" width="44.005" height="18.494" viewBox="0 0 44.005 18.494">
  <g id="Group_1404" data-name="Group 1404" transform="translate(21138.883 16563.879)">
    <path id="Path_1634" data-name="Path 1634" d="M3.82-18.791l-.113.014v-2.1h.906v5.1H3.792l-.057-.439a1.481,1.481,0,0,1-.45.343,1.387,1.387,0,0,1-.648.145,1.478,1.478,0,0,1-.814-.227,1.526,1.526,0,0,1-.552-.634,2.169,2.169,0,0,1-.2-.96,2.193,2.193,0,0,1,.2-.963,1.5,1.5,0,0,1,.552-.634,1.5,1.5,0,0,1,.814-.223,1.439,1.439,0,0,1,.719.17A1.343,1.343,0,0,1,3.82-18.791ZM2.05-17.552a1.088,1.088,0,0,0,.227.719.736.736,0,0,0,.595.273.768.768,0,0,0,.414-.117.862.862,0,0,0,.3-.336,1.134,1.134,0,0,0,.117-.538,1.134,1.134,0,0,0-.117-.538.862.862,0,0,0-.3-.336.768.768,0,0,0-.414-.117.736.736,0,0,0-.595.273A1.088,1.088,0,0,0,2.05-17.552Zm7.137-1.77h.821l.064.361a1.21,1.21,0,0,1,.414-.3,1.272,1.272,0,0,1,.528-.11,1.355,1.355,0,0,1,.712.177,1.162,1.162,0,0,1,.453.513,1.938,1.938,0,0,1,.159.832v2.068h-.913v-1.947a.979.979,0,0,0-.163-.616.586.586,0,0,0-.489-.205.621.621,0,0,0-.506.209.951.951,0,0,0-.173.62v1.94H9.188Zm5.838,3.541-.071-.432a1.418,1.418,0,0,1-.4.347,1.2,1.2,0,0,1-.6.127,1.451,1.451,0,0,1-.62-.124.985.985,0,0,1-.414-.347.929.929,0,0,1-.149-.528.959.959,0,0,1,.322-.74,1.721,1.721,0,0,1,.974-.372l.885-.1V-18.2a.377.377,0,0,0-.135-.276A.6.6,0,0,0,14.4-18.6a.785.785,0,0,0-.443.124.606.606,0,0,0-.251.372l-.779-.283a1.266,1.266,0,0,1,.538-.729,1.771,1.771,0,0,1,.977-.255,1.464,1.464,0,0,1,1.066.351,1.236,1.236,0,0,1,.358.924v2.316Zm-.071-1.537-.765.1a.626.626,0,0,0-.354.138.346.346,0,0,0-.12.266.318.318,0,0,0,.12.251.508.508,0,0,0,.34.1.889.889,0,0,0,.421-.092.622.622,0,0,0,.266-.269.944.944,0,0,0,.092-.439Zm1.774-2v-.991h.921v.991h.779v.8h-.779v1.438a.53.53,0,0,0,.117.389.436.436,0,0,0,.3.12,1.9,1.9,0,0,0,.365-.021v.779a2.076,2.076,0,0,1-.634.042,1.335,1.335,0,0,1-.549-.166.946.946,0,0,1-.379-.421,1.649,1.649,0,0,1-.138-.722v-1.438h-.5v-.8Zm3.951,3.59a1.832,1.832,0,0,1-.935-.234,1.617,1.617,0,0,1-.627-.651,2.014,2.014,0,0,1-.223-.963,1.911,1.911,0,0,1,.22-.928,1.614,1.614,0,0,1,.613-.634,1.739,1.739,0,0,1,.9-.23,1.8,1.8,0,0,1,.9.22,1.542,1.542,0,0,1,.605.613,1.874,1.874,0,0,1,.216.917,1.584,1.584,0,0,1-.011.173q-.011.1-.025.2H19.873a.81.81,0,0,0,.145.386.815.815,0,0,0,.29.248.852.852,0,0,0,.393.089,1,1,0,0,0,.471-.11.683.683,0,0,0,.3-.287l.807.241a1.562,1.562,0,0,1-.634.7A1.87,1.87,0,0,1,20.68-15.732Zm.673-2.174a.713.713,0,0,0-.106-.358.7.7,0,0,0-.262-.248.744.744,0,0,0-.361-.089.643.643,0,0,0-.333.092.872.872,0,0,0-.266.244.849.849,0,0,0-.145.358Z" transform="translate(-21120.42 -16542.926)" fill="#fff"/>
    <path id="Path_1633" data-name="Path 1633" d="M2.73-31.96l3.123-2.931q.865-.817,1.369-1.377A4.25,4.25,0,0,0,7.943-37.3a2.341,2.341,0,0,0,.216-.985,1.7,1.7,0,0,0-.376-1.145,1.575,1.575,0,0,0-1.257-.44,1.646,1.646,0,0,0-.913.248,1.6,1.6,0,0,0-.593.713A2.906,2.906,0,0,0,4.8-37.789H2.714a4.421,4.421,0,0,1,.561-2.226A3.281,3.281,0,0,1,4.668-41.3a4.372,4.372,0,0,1,1.922-.416,4.48,4.48,0,0,1,2.082.44A3,3,0,0,1,9.945-40.08a3.461,3.461,0,0,1,.424,1.73,3.862,3.862,0,0,1-.248,1.377,5.227,5.227,0,0,1-.841,1.393,15.7,15.7,0,0,1-1.65,1.7L5.773-32.2h4.852v1.81H2.73Zm14.223-.8-5.621-.016-.016-1.617L16.569-41.6H19.1l.016,7.03,1.409.016v1.794L19.1-32.777l.016,2.386H16.969Zm.112-1.794-.016-4.74L13.7-34.571Z" transform="translate(-21122.063 -16515.24)" fill="#fff"/>
    <path id="Path_1632" data-name="Path 1632" d="M1.922-22.32h1.1v2.313a1.492,1.492,0,0,1,.494-.348,1.609,1.609,0,0,1,.666-.133,1.656,1.656,0,0,1,.856.215,1.42,1.42,0,0,1,.563.623,2.308,2.308,0,0,1,.2,1.01v2.511H4.639v-2.365a1.189,1.189,0,0,0-.2-.748.711.711,0,0,0-.593-.249.732.732,0,0,0-.615.271,1.23,1.23,0,0,0-.211.77v2.322h-1.1Zm4.6,1.892h1l.077.55A1.636,1.636,0,0,1,8-20.243a1.513,1.513,0,0,1,.5-.2,1.353,1.353,0,0,1,.576.013V-19.4a1.064,1.064,0,0,0-.486-.043,1.113,1.113,0,0,0-.473.181,1.1,1.1,0,0,0-.361.417,1.465,1.465,0,0,0-.142.684v2.029H6.52Z" transform="translate(-21103.959 -16534.531)" fill="#fff"/>
    <path id="Path_17786" data-name="Path 17786" d="M71.189,29.11a1.9,1.9,0,1,0,1.9,1.9,1.9,1.9,0,0,0-1.9-1.9Zm-1.247,2.359a.223.223,0,0,1,0-.315l1.391-1.392a.223.223,0,0,1,.315,0l.037.037-1.706,1.707Zm2.489-.608L71.04,32.252a.223.223,0,0,1-.315,0l-.554-.555,1.706-1.706.555.555A.223.223,0,0,1,72.431,30.861Z" transform="translate(-21184.736 -16591.402)" fill="#fff"/>
    <path id="Path_17787" data-name="Path 17787" d="M78.54,29.11a9.247,9.247,0,1,0,9.244,9.246A9.247,9.247,0,0,0,78.54,29.11ZM72.464,40.6a1.085,1.085,0,0,1,0-1.534l6.776-6.782a1.085,1.085,0,0,1,1.534,0l.178.178-8.31,8.316Zm12.126-2.961-6.776,6.776a1.085,1.085,0,0,1-1.534,0l-2.7-2.7,8.31-8.31,2.7,2.7A1.085,1.085,0,0,1,84.589,37.642Z" transform="translate(-21208.172 -16592.988)" fill="#fff"/>
  </g>
</svg>
