<svg xmlns="http://www.w3.org/2000/svg" width="157.044" height="29.99" viewBox="0 0 157.044 29.99">
  <path id="Union_49" data-name="Union 49" d="M-9257.584,23059.99l2.581-6.309-6.263-16.209h4.671l3.854,10.793,3.507-10.793h4.642l-8.357,22.518Zm-25.024-6.754c-4.5,0-7.466-3.529-7.466-7.9s2.939-7.859,7.263-7.859a5.26,5.26,0,0,1,4.7,2.395v-1.92h4.121v14.809h-4.121v-1.916a5.24,5.24,0,0,1-4.387,2.4Zm-4.115-7.883a4.208,4.208,0,0,0,4.185,4.23,4.206,4.206,0,0,0,4.179-4.23,4.213,4.213,0,0,0-4.185-4.236A4.208,4.208,0,0,0-9286.724,23045.354Zm-44.811,7.883c-4.5,0-7.466-3.529-7.466-7.9s2.939-7.859,7.257-7.859a5.26,5.26,0,0,1,4.7,2.395V23030h4.127v22.756h-4.127v-1.916a5.222,5.222,0,0,1-4.381,2.4Zm-3.745-8.01a4.074,4.074,0,0,0,4.052,4.1,4.074,4.074,0,0,0,4.051-4.1,4.074,4.074,0,0,0-4.051-4.1A4.074,4.074,0,0,0-9335.279,23045.227Zm112.777,0a7.892,7.892,0,0,1,7.848-7.939,7.9,7.9,0,0,1,7.842,7.939,7.894,7.894,0,0,1-7.848,7.941A7.893,7.893,0,0,1-9222.5,23045.227Zm3.641,2.883,2.286,2.326a.921.921,0,0,0,1.3,0l5.747-5.822a.932.932,0,0,0,.006-1.314l-2.292-2.32Zm4.8-8.092-5.746,5.822a.943.943,0,0,0,0,1.32l.15.15,7.049-7.143-.15-.15a.905.905,0,0,0-.648-.271A.908.908,0,0,0-9214.064,23040.018Zm-99.535,13.15a7.893,7.893,0,0,1-7.83-7.936,7.9,7.9,0,0,1,7.842-7.945,7.9,7.9,0,0,1,7.842,7.945,7.9,7.9,0,0,1-7.842,7.936Zm-4.2-7.936a4.23,4.23,0,0,0,4.2,4.248,4.231,4.231,0,0,0,4.207-4.248,4.231,4.231,0,0,0-4.2-4.254A4.233,4.233,0,0,0-9317.8,23045.232Zm81.4,6.852a10.822,10.822,0,0,1-3.564-2.389,11.064,11.064,0,0,1-2.361-3.623,12.117,12.117,0,0,1-.851-4.6,12.1,12.1,0,0,1,.851-4.6,11,11,0,0,1,2.361-3.627,10.888,10.888,0,0,1,3.564-2.391,11.471,11.471,0,0,1,4.468-.863,10.853,10.853,0,0,1,4.022.8,8.167,8.167,0,0,1,3.443,2.656l-1.921,1.447a5.236,5.236,0,0,0-.915-1.047,6.532,6.532,0,0,0-1.325-.926,8.393,8.393,0,0,0-1.6-.648,6.2,6.2,0,0,0-1.707-.244,8.682,8.682,0,0,0-3.721.77,8.485,8.485,0,0,0-2.784,2.066,9.067,9.067,0,0,0-1.753,3.01,10.655,10.655,0,0,0-.614,3.594,10.68,10.68,0,0,0,.614,3.594,9.02,9.02,0,0,0,1.753,3,8.377,8.377,0,0,0,2.784,2.066,8.655,8.655,0,0,0,3.721.775,9.243,9.243,0,0,0,1.69-.156,7.182,7.182,0,0,0,1.649-.521,6.3,6.3,0,0,0,1.521-1.006,7.5,7.5,0,0,0,1.325-1.586l1.8,1.291a8.568,8.568,0,0,1-1.359,1.578,8.772,8.772,0,0,1-1.841,1.279,10.464,10.464,0,0,1-2.239.846,10.105,10.105,0,0,1-2.547.307A11.366,11.366,0,0,1-9236.392,23052.084Zm-35.823.672v-14.809h4.127v2.227a4.968,4.968,0,0,1,1.828-2.053,4.445,4.445,0,0,1,2.431-.648,4.979,4.979,0,0,1,1.76.34l-1.325,3.484s-2.818-.312-3.878,1.064a5.228,5.228,0,0,0-.811,3.283v7.111Zm-23,0v-8.072a4.249,4.249,0,0,0-.782-2.9,2.608,2.608,0,0,0-1.927-.764,2.806,2.806,0,0,0-2.535,1.3,5.1,5.1,0,0,0-.642,2.875v7.564h-4.115v-14.809h4.121v1.92a5.336,5.336,0,0,1,4.525-2.395,5.552,5.552,0,0,1,4.323,1.811,6.285,6.285,0,0,1,1.146,4.172v9.3Zm103.679-.631a6.958,6.958,0,0,1-2.332-1.586,7.6,7.6,0,0,1-1.539-2.406,7.937,7.937,0,0,1-.562-3.021,8.056,8.056,0,0,1,.55-3.027,7.373,7.373,0,0,1,1.521-2.406,7,7,0,0,1,2.286-1.586,6.984,6.984,0,0,1,2.836-.574,6.915,6.915,0,0,1,2.894.586,6.479,6.479,0,0,1,2.147,1.563,6.635,6.635,0,0,1,1.325,2.279,8.389,8.389,0,0,1,.457,2.795v.926h-11.887a6.328,6.328,0,0,0,.521,2.031,5.281,5.281,0,0,0,1.129,1.65,5.427,5.427,0,0,0,1.614,1.1,4.887,4.887,0,0,0,1.979.4,5.039,5.039,0,0,0,2.789-.758,5.576,5.576,0,0,0,1.782-1.742l1.558,1.3a7.78,7.78,0,0,1-2.818,2.344,7.8,7.8,0,0,1-3.311.713A7.469,7.469,0,0,1-9191.54,23052.125Zm.868-12.367a5.328,5.328,0,0,0-1.6,1.029,5.184,5.184,0,0,0-1.1,1.482,3.892,3.892,0,0,0-.411,1.73h9.63a4.662,4.662,0,0,0-1.221-3.352,4.5,4.5,0,0,0-3.409-1.277A4.763,4.763,0,0,0-9190.672,23039.758Zm-13.924,12.57v-14.439h1.857v2.686h.058a4.7,4.7,0,0,1,.613-1.129,4.567,4.567,0,0,1,.955-.967,4.673,4.673,0,0,1,1.314-.693,4.943,4.943,0,0,1,1.689-.268,5.472,5.472,0,0,1,1.493.186l-.394,2.008a3.345,3.345,0,0,0-1.157-.156,4.077,4.077,0,0,0-1.985.451,4.484,4.484,0,0,0-1.371,1.141,4.793,4.793,0,0,0-.8,1.494,4.988,4.988,0,0,0-.261,1.545v8.143Zm-79.575-5.324a.418.418,0,0,1,0-.59l2.679-2.709a.408.408,0,0,1,.29-.121.408.408,0,0,1,.289.121.425.425,0,0,1,.122.295.436.436,0,0,1-.122.295l-2.662,2.709a.424.424,0,0,1-.3.127A.409.409,0,0,1-9284.171,23047Z" transform="translate(9339 -23030)" fill="#fff"/>
</svg>
