<svg xmlns="http://www.w3.org/2000/svg" width="93.044" height="17.99" viewBox="0 0 93.044 17.99">
  <path id="Union_50" data-name="Union 50" d="M-9290.764,23047.99l1.529-3.783-3.711-9.725h2.768l2.284,6.475,2.077-6.475h2.75l-4.951,13.508Zm-14.826-4.053a4.449,4.449,0,0,1-4.423-4.74c0-2.623,1.741-4.715,4.3-4.715a3.1,3.1,0,0,1,2.784,1.436v-1.15h2.441v8.883h-2.441v-1.15a3.091,3.091,0,0,1-2.6,1.438Zm-2.437-4.727a2.508,2.508,0,0,0,2.479,2.537,2.509,2.509,0,0,0,2.477-2.537,2.514,2.514,0,0,0-2.48-2.543A2.511,2.511,0,0,0-9308.027,23039.211Zm-26.549,4.727a4.449,4.449,0,0,1-4.424-4.74c0-2.623,1.742-4.715,4.3-4.715a3.106,3.106,0,0,1,2.785,1.436V23030h2.445v13.65h-2.445v-1.15a3.08,3.08,0,0,1-2.6,1.438Zm-2.219-4.8a2.429,2.429,0,0,0,2.4,2.463,2.429,2.429,0,0,0,2.4-2.463,2.429,2.429,0,0,0-2.4-2.457A2.429,2.429,0,0,0-9336.795,23039.133Zm66.816,0a4.706,4.706,0,0,1,4.65-4.762,4.71,4.71,0,0,1,4.646,4.762,4.708,4.708,0,0,1-4.649,4.766A4.708,4.708,0,0,1-9269.979,23039.133Zm2.157,1.73,1.354,1.395a.542.542,0,0,0,.771,0l3.4-3.492a.564.564,0,0,0,0-.789l-1.357-1.391Zm2.842-4.855-3.4,3.494a.57.57,0,0,0,0,.791l.089.09,4.176-4.283-.088-.092a.537.537,0,0,0-.385-.16A.535.535,0,0,0-9264.979,23036.008Zm-58.972,7.891a4.707,4.707,0,0,1-4.639-4.762,4.713,4.713,0,0,1,4.646-4.766,4.713,4.713,0,0,1,4.646,4.766,4.711,4.711,0,0,1-4.646,4.762Zm-2.486-4.762a2.523,2.523,0,0,0,2.49,2.549,2.523,2.523,0,0,0,2.492-2.549,2.521,2.521,0,0,0-2.488-2.551A2.523,2.523,0,0,0-9326.437,23039.137Zm48.23,4.109a6.37,6.37,0,0,1-2.112-1.432,6.647,6.647,0,0,1-1.4-2.174,7.352,7.352,0,0,1-.5-2.756,7.33,7.33,0,0,1,.5-2.756,6.575,6.575,0,0,1,1.4-2.176,6.41,6.41,0,0,1,2.112-1.436,6.7,6.7,0,0,1,2.646-.518,6.329,6.329,0,0,1,2.383.48,4.83,4.83,0,0,1,2.041,1.592l-1.139.869a3.131,3.131,0,0,0-.542-.629,3.947,3.947,0,0,0-.785-.555,5.017,5.017,0,0,0-.946-.391,3.692,3.692,0,0,0-1.012-.145,5.089,5.089,0,0,0-2.205.461,5.031,5.031,0,0,0-1.648,1.238,5.465,5.465,0,0,0-1.039,1.807,6.466,6.466,0,0,0-.363,2.156,6.471,6.471,0,0,0,.363,2.154,5.428,5.428,0,0,0,1.039,1.8,4.983,4.983,0,0,0,1.648,1.24,5.09,5.09,0,0,0,2.205.465,5.389,5.389,0,0,0,1-.094,4.239,4.239,0,0,0,.977-.312,3.777,3.777,0,0,0,.9-.6,4.522,4.522,0,0,0,.785-.951l1.066.773a5.22,5.22,0,0,1-.807.947,5.215,5.215,0,0,1-1.09.768,6.267,6.267,0,0,1-1.327.508,5.931,5.931,0,0,1-1.509.184A6.631,6.631,0,0,1-9278.207,23043.246Zm-21.225.4v-8.883h2.445v1.334a2.97,2.97,0,0,1,1.083-1.23,2.619,2.619,0,0,1,1.44-.389,2.894,2.894,0,0,1,1.042.205l-.785,2.09s-1.67-.187-2.3.637a3.173,3.173,0,0,0-.48,1.971v4.266Zm-13.629,0v-4.842a2.575,2.575,0,0,0-.464-1.74,1.534,1.534,0,0,0-1.142-.459,1.659,1.659,0,0,0-1.5.777,3.1,3.1,0,0,0-.38,1.727v4.537h-2.438v-8.883h2.441v1.15a3.153,3.153,0,0,1,2.682-1.436,3.269,3.269,0,0,1,2.562,1.086,3.808,3.808,0,0,1,.679,2.5v5.58Zm61.426-.379a4.117,4.117,0,0,1-1.381-.951,4.531,4.531,0,0,1-.912-1.443,4.806,4.806,0,0,1-.332-1.812,4.877,4.877,0,0,1,.325-1.814,4.435,4.435,0,0,1,.9-1.445,4.149,4.149,0,0,1,1.354-.951,4.113,4.113,0,0,1,1.681-.344,4.063,4.063,0,0,1,1.714.352,3.888,3.888,0,0,1,1.272.936,4.03,4.03,0,0,1,.785,1.367,5.112,5.112,0,0,1,.271,1.678v.557H-9253a3.858,3.858,0,0,0,.308,1.219,3.2,3.2,0,0,0,.669.988,3.236,3.236,0,0,0,.957.66,2.845,2.845,0,0,0,1.172.238,2.966,2.966,0,0,0,1.652-.453,3.337,3.337,0,0,0,1.057-1.047l.923.779a4.626,4.626,0,0,1-1.67,1.4,4.574,4.574,0,0,1-1.962.43A4.365,4.365,0,0,1-9251.635,23043.271Zm.515-7.418a3.171,3.171,0,0,0-.946.617,3.1,3.1,0,0,0-.65.889,2.351,2.351,0,0,0-.244,1.039h5.705a2.824,2.824,0,0,0-.723-2.012,2.652,2.652,0,0,0-2.02-.766A2.787,2.787,0,0,0-9251.12,23035.854Zm-8.249,7.541v-8.662h1.1v1.611h.035a2.785,2.785,0,0,1,.363-.678,2.693,2.693,0,0,1,.565-.58,2.731,2.731,0,0,1,.778-.416,2.911,2.911,0,0,1,1-.16,3.145,3.145,0,0,1,.885.111l-.234,1.2a1.943,1.943,0,0,0-.686-.094,2.378,2.378,0,0,0-1.176.271,2.647,2.647,0,0,0-.812.686,2.871,2.871,0,0,0-.477.895,3.016,3.016,0,0,0-.154.928v4.885Zm-47.146-3.2a.254.254,0,0,1,0-.354l1.588-1.625a.241.241,0,0,1,.172-.072.243.243,0,0,1,.171.072.261.261,0,0,1,.072.178.259.259,0,0,1-.072.176l-1.577,1.625a.251.251,0,0,1-.179.078A.241.241,0,0,1-9306.516,23040.2Z" transform="translate(9339 -23030)" fill="#694fa5"/>
</svg>
