<svg xmlns="http://www.w3.org/2000/svg" width="19.688" height="15.889" viewBox="0 0 19.688 15.889">
  <g id="Layer_2" data-name="Layer 2" transform="translate(0)" opacity="0.83" style="mix-blend-mode: normal;isolation: isolate">
    <g id="Layer_1" data-name="Layer 1" transform="translate(0)">
      <path id="Path_29" data-name="Path 29" d="M18.347,2.838H17.36l-.83-1.444A1.175,1.175,0,0,0,15.487.782H11.441a.38.38,0,1,0,0,.76h4.046a.423.423,0,0,1,.386.234l.61,1.062h-5.2a.573.573,0,0,1-.5-.3L9.708.651A1.36,1.36,0,0,0,8.558,0H1.318A1.32,1.32,0,0,0,0,1.318V14.571a1.32,1.32,0,0,0,1.318,1.318H18.347a1.331,1.331,0,0,0,1.34-1.318V4.157A1.331,1.331,0,0,0,18.347,2.838ZM11.51,11.561a1.677,1.677,0,0,1-.345.859,2.043,2.043,0,0,1-1.644.467l-.13-.019A7.239,7.239,0,0,1,5.363,9.943C4.554,8.794,3.625,6.689,3.99,5.038a2.04,2.04,0,0,1,.994-1.391,1.664,1.664,0,0,1,.925-.035.167.167,0,0,1,.134.126c.241,1.029.48,2.117.53,2.444a.167.167,0,0,1-.045.142,6.877,6.877,0,0,1-.778.623l-.013.008c-.218.147-.184.541-.168.717a4.828,4.828,0,0,0,2.01,2.847c.157.071.514.233.725.077l.012-.009a6.989,6.989,0,0,1,.846-.521.167.167,0,0,1,.149,0c.305.163,1.244.751,2.127,1.321A.168.168,0,0,1,11.51,11.561Z" fill="#fff"/>
    </g>
  </g>
</svg>
