<svg xmlns="http://www.w3.org/2000/svg" xmlns:xlink="http://www.w3.org/1999/xlink" width="42.154" height="42.154" viewBox="0 0 42.154 42.154">
  <defs>
    <clipPath id="clip-path">
      <rect id="Rectangle_6263" data-name="Rectangle 6263" width="42.154" height="42.154" fill="#8f85a4"/>
    </clipPath>
  </defs>
  <g id="Group_2663" data-name="Group 2663" transform="translate(-703.773 -427.773)">
    <g id="Group_2662" data-name="Group 2662" transform="translate(703.773 427.773)">
      <g id="Group_2661" data-name="Group 2661" clip-path="url(#clip-path)">
        <path id="Path_1810" data-name="Path 1810" d="M328.515,9.076,317.26.138a.639.639,0,0,0-.795,0L305.21,9.076a.639.639,0,0,0,.4,1.139h1.3v8.757h-.831a.639.639,0,0,0-.639.639v2.722a.639.639,0,0,0,.639.639H327.65a.639.639,0,0,0,.639-.639V19.611a.639.639,0,0,0-.639-.639h-.831V10.215h1.3a.639.639,0,0,0,.4-1.139M316.862,1.454l9.424,7.484H307.439Zm2.109,8.761h3.63v8.757h-3.63Zm-7.848,0h3.63v8.757h-3.63Zm4.907,0h1.663v8.757h-1.663Zm-7.848,0h1.663v8.757h-1.663Zm18.828,11.479h-20.3V20.249h20.3Zm-1.47-2.722h-1.663V10.215h1.663Z" transform="translate(-286.602 0)" fill="#8f85a4"/>
        <path id="Path_1811" data-name="Path 1811" d="M12.3,318.234a.639.639,0,0,0-.795,0L.241,327.182a.639.639,0,0,0,.4,1.139h1.3v8.768H1.106a.639.639,0,0,0-.639.639v2.725a.639.639,0,0,0,.639.639h21.6a.639.639,0,0,0,.639-.639v-2.725a.639.639,0,0,0-.639-.639h-.833v-8.768h1.3a.639.639,0,0,0,.4-1.139Zm-.4,1.316,9.437,7.494H2.47Zm2.111,8.771h3.635v8.768H14.017Zm-7.857,0H9.8v8.768H6.16Zm4.913,0H12.74v8.768H11.073Zm-7.857,0H4.883v8.768H3.216Zm18.851,11.493H1.745v-1.448H22.068ZM20.6,337.089H18.93v-8.768H20.6Z" transform="translate(0 -298.938)" fill="#8f85a4"/>
        <path id="Path_1812" data-name="Path 1812" d="M425.282,403.624s-.01-.006-.015-.01a.626.626,0,0,0-.928,0s-.011.006-.015.01l-3.686,4.18a.639.639,0,0,0,.958.845l2.568-2.912v12.89H414.8a.639.639,0,0,0,0,1.277h10a.639.639,0,0,0,.639-.639V405.737l2.568,2.912a.639.639,0,1,0,.958-.845Z" transform="translate(-389.223 -379.113)" fill="#8f85a4"/>
        <path id="Path_1813" data-name="Path 1813" d="M70.166,38.753a.639.639,0,0,0,.639-.639V23H81.77l-2.911,2.572a.639.639,0,0,0,.846.957l4.187-3.7a.636.636,0,0,0,.2-.463.664.664,0,0,0-.2-.463s-.006-.011-.011-.015L79.7,18.191a.639.639,0,0,0-.846.957L81.77,21.72h-11.6a.639.639,0,0,0-.639.639V38.114a.639.639,0,0,0,.639.639" transform="translate(-65.34 -16.945)" fill="#8f85a4"/>
        <path id="Path_1814" data-name="Path 1814" d="M162.433,378.863a2.26,2.26,0,1,0-2.26-2.26,2.263,2.263,0,0,0,2.26,2.26m0-3.243a.983.983,0,1,1-.983.983.984.984,0,0,1,.983-.983" transform="translate(-150.527 -351.798)" fill="#8f85a4"/>
        <path id="Path_1815" data-name="Path 1815" d="M467.185,61.554a2.26,2.26,0,1,0-2.26-2.26,2.263,2.263,0,0,0,2.26,2.26m0-3.243a.983.983,0,1,1-.983.983.984.984,0,0,1,.983-.983" transform="translate(-436.924 -53.598)" fill="#8f85a4"/>
      </g>
    </g>
  </g>
</svg>
